# xmcd
#
# Track frame offsets:
#	150
#	19665
#	34570
#	54225
#	71527
#	85752
#	95670
#	109630
#	123577
#	141925
#	156697
#	167560
#	182245
#	198740
#
# Disc length: 2882
#
# Revision: 1
# Processed by: cddbd v1.5.1PL0 Copyright (c) Steve Scherf et al.
# Submitted via: CDex 1.51
# Normalized: r0:TSWAP
#
DISCID=c10b400e
DTITLE=Various JAZZ Artists - BEST SELLERS JAZZ WOMEN VOCAL
DYEAR=1900
DGENRE=Jazz
TTITLE0=HELEN MERRILL - YOU'D BE SO NICE TO COME HOME TO
TTITLE1=SARAH VAUGHAN - STARDUST
TTITLE2=CARMEN McRAE - LOVER MAN
TTITLE3=BILLIE HOLIDAY - YOU DON'T KNOW WHAT LOVE IS
TTITLE4=ELLA FITZGERALD - LIKE SOMEONE IN LOVE
TTITLE5=JUNE CHRSTY - SOFLY AS IN A MORNING SUNRISE
TTITLE6=DORIS DAY - AUTUMN LEAVES
TTITLE7=ROSEMARY CLOONEY - WHEN YOU WISH UPON A STAR
TTITLE8=NANCY WILSON - BUT BEAUTIFL
TTITLE9=MILDRED BALEY - LOVER COME BACK TO ME
TTITLE10=CHRIC CNNOR - LULLABY OF BIRDLAND
TTITLE11=JO STAFFORD - BUT NOT FOR ME
TTITLE12=PEGGY LEE - BYE BYE BLACKBIRD
TTITLE13=ANITA O'DAY - I CAN'T GET STAI
EXTD=
EXTT0=
EXTT1=
EXTT2=
EXTT3=
EXTT4=
EXTT5=
EXTT6=
EXTT7=
EXTT8=
EXTT9=
EXTT10=
EXTT11=
EXTT12=
EXTT13=
PLAYORDER=
